<svg xmlns="http://www.w3.org/2000/svg" viewBox="0 0 1000 1000"><defs><style>.cls-1{fill:#ede3ef;}.cls-2{fill:#c8bfc9;}.cls-3{fill:#ccc;}.cls-4{fill:#ffe65a;}.cls-5{fill:#f9d373;}.cls-6{fill:#d3924c;}.cls-7{fill:#895d2e;}.cls-8{fill:#fff;}.cls-9{fill:#e8d397;stroke:#000;stroke-miterlimit:10;}</style></defs><title>Drake Floyd</title><g id="Calque_9" data-name="Calque 9"><path class="cls-1" d="M750.93,661c-2.53-60.43-81.28-110.92-187.43-125.65V481.5a49,49,0,0,0-49-49h-29a49,49,0,0,0-49,49v53.71C329.85,549.76,250.61,600.38,248.07,661H248v339H751V661Z"/><polygon class="cls-2" points="435.5 537 498.5 753 435.5 684 447.5 629 396.5 601 435.5 537"/><polygon class="cls-2" points="563.5 537 500.5 753 563.5 684 551.5 629 602.5 601 563.5 537"/><line class="cls-3" x1="499.5" y1="753" x2="499.5" y2="1001"/></g><g id="Calque_14_-_copie_2" data-name="Calque 14 - copie 2"><path class="cls-4" d="M438,549l62,204,59.09-204C504.19,624,438,549,438,549Z"/></g><g id="Calque_1" data-name="Calque 1"><rect class="cls-5" x="437" y="414" width="125" height="169" rx="51" ry="51"/></g><g id="Calque_8" data-name="Calque 8"><ellipse class="cls-5" cx="500" cy="330" rx="137" ry="188"/><ellipse class="cls-6" cx="499.5" cy="353" rx="36" ry="20.5"/></g><g id="Calque_19" data-name="Calque 19"><path class="cls-7" d="M390.89,314s2.24-12.25,11.18-32.29c0,0-30.2-80.16,40.26-119.13,0,0,3.36,36.74,58.16,39v-79s-142-1.11-133.09,162.55C367.41,285.05,384.18,306.21,390.89,314Z"/><path class="cls-7" d="M609.66,314s-2.28-12.25-11.39-32.29c0,0,30.76-80.16-41-119.13,0,0-3.42,36.74-59.25,39v-79s144.7-1.11,135.59,162.55C633.59,285.05,616.5,306.21,609.66,314Z"/></g><g id="Calque_20" data-name="Calque 20"><path class="cls-7" d="M367,283s-8,71,5,109c0,0,6-30,17-20,0,0-9-27,2-59Z"/><path class="cls-7" d="M633.56,283s8,71-5,109c0,0-6-30-17-20,0,0,9-27-2-59Z"/></g><g id="Calque_3" data-name="Calque 3"><circle class="cls-8" cx="546" cy="307" r="35.5"/><circle class="cls-8" cx="454" cy="307" r="35.5"/><path class="cls-8" d="M489.5,306.5h21S501.5,293.5,489.5,306.5Z"/><ellipse class="cls-5" cx="500" cy="306.5" rx="10" ry="11.5"/><path class="cls-9" d="M490,307s9-4,21,0"/></g></svg>