<svg xmlns="http://www.w3.org/2000/svg" viewBox="0 0 1000 1000"><defs><style>.cls-1{fill:#754c24;}.cls-2{fill:#ede3ef;}.cls-3{fill:#c8bfc9;}.cls-4{fill:#ccc;}.cls-5{fill:#4f6bf3;}.cls-6{fill:#f9d373;}.cls-7{fill:#d3924c;}.cls-8{fill:#fff;}.cls-9{fill:#e8d397;stroke:#000;stroke-miterlimit:10;}</style></defs><title>Jean merde-02</title><g id="Calque_5_-_copie" data-name="Calque 5 - copie"><ellipse class="cls-1" cx="500" cy="283.5" rx="142" ry="153.47"/></g><g id="Calque_9" data-name="Calque 9"><path class="cls-2" d="M750.93,661c-2.53-60.43-81.28-110.92-187.43-125.65V481.5a49,49,0,0,0-49-49h-29a49,49,0,0,0-49,49v53.71C329.85,549.76,250.61,600.38,248.07,661H248v339H751V661Z"/><polygon class="cls-3" points="435.5 537 498.5 753 435.5 684 447.5 629 396.5 601 435.5 537"/><polygon class="cls-3" points="563.5 537 500.5 753 563.5 684 551.5 629 602.5 601 563.5 537"/><line class="cls-4" x1="499.5" y1="753" x2="499.5" y2="1001"/></g><g id="Calque_14_-_copie" data-name="Calque 14 - copie"><path class="cls-5" d="M438,549l62,204,59.09-204C504.19,624,438,549,438,549Z"/></g><g id="Calque_1" data-name="Calque 1"><rect class="cls-6" x="437" y="414" width="125" height="169" rx="51" ry="51"/></g><g id="Calque_8" data-name="Calque 8"><ellipse class="cls-6" cx="500" cy="330" rx="137" ry="188"/><ellipse class="cls-7" cx="499.5" cy="353" rx="36" ry="20.5"/></g><g id="Calque_16" data-name="Calque 16"><path class="cls-1" d="M500,378s-29-1.35-46,10.84c0,0-6,12.19-16,31.15,0,0,22-10.84,25-20.32,0,0,20-6.77,36,0Z"/><path class="cls-1" d="M498,378s29-1.35,46,10.84c0,0,6,12.19,16,31.15,0,0-22-10.84-25-20.32,0,0-20-6.77-36,0Z"/></g><g id="Calque_17" data-name="Calque 17"><path class="cls-1" d="M500,451h-6s9,13-5,22c0,0-31,19-45-34,0,0-4,39,32,61,0,0,9,3,14-4,0,0,2,4,10,5Z"/><path class="cls-1" d="M500,451h6s-9,13,5,22c0,0,31,19,45-34,0,0,4,39-32,61,0,0-9,3-14-4,0,0-2,4-10,5Z"/></g><g id="Calque_15" data-name="Calque 15"><path class="cls-1" d="M378,242l40-40V179a65.31,65.31,0,0,1,45,0c24,9-1-16-9-16,0,0,82,4,92,11l5-11,8,14s20,1,30,18v7l32,40s-3.81-98.44-61.91-105.22c0,0,4.91-39.78-60.09-39.78l11,16s-8-15-47-8l-9,18s-38-1-53,24c0,0-23,24-27,38s-7,45.19-7,45.19Z"/></g><g id="Calque_3" data-name="Calque 3"><circle class="cls-8" cx="546" cy="307" r="35.5"/><circle class="cls-8" cx="454" cy="307" r="35.5"/><path class="cls-8" d="M489.5,306.5h21S501.5,293.5,489.5,306.5Z"/><ellipse class="cls-6" cx="500" cy="306.5" rx="10" ry="11.5"/><path class="cls-9" d="M490,307s9-4,21,0"/></g></svg>