<svg xmlns="http://www.w3.org/2000/svg" viewBox="0 0 1000 1000"><defs><style>.cls-1{fill:#ede3ef;}.cls-2{fill:#c8bfc9;}.cls-3{fill:#ccc;}.cls-4{fill:#ff4b82;}.cls-5{fill:#f9d373;}.cls-6{fill:#d3924c;}.cls-7{fill:#fff;}.cls-8{fill:#e8d397;stroke:#000;stroke-miterlimit:10;}</style></defs><title>Jean merde</title><g id="Calque_5" data-name="Calque 5"><circle cx="499.5" cy="258.5" r="135.5"/></g><g id="Calque_9" data-name="Calque 9"><path class="cls-1" d="M750.93,661c-2.53-60.43-81.28-110.92-187.43-125.65V481.5a49,49,0,0,0-49-49h-29a49,49,0,0,0-49,49v53.71C329.85,549.76,250.61,600.38,248.07,661H248v339H751V661Z"/><polygon class="cls-2" points="435.5 537 498.5 753 435.5 684 447.5 629 396.5 601 435.5 537"/><polygon class="cls-2" points="563.5 537 500.5 753 563.5 684 551.5 629 602.5 601 563.5 537"/><line class="cls-3" x1="499.5" y1="753" x2="499.5" y2="1001"/></g><g id="Calque_14" data-name="Calque 14"><path class="cls-4" d="M438,549l62,204,59.09-204C504.19,624,438,549,438,549Z"/></g><g id="Calque_1" data-name="Calque 1"><rect class="cls-5" x="437" y="414" width="125" height="169" rx="51" ry="51"/></g><g id="Calque_8" data-name="Calque 8"><ellipse class="cls-5" cx="500" cy="330" rx="137" ry="188"/><ellipse class="cls-6" cx="499.5" cy="353" rx="36" ry="20.5"/></g><g id="Calque_6" data-name="Calque 6"><ellipse cx="447.5" cy="180" rx="61.5" ry="61"/><circle cx="406" cy="206" r="42"/><circle cx="520.5" cy="177.5" r="72.5"/><circle cx="589.5" cy="204.5" r="45.5"/></g><g id="Calque_7" data-name="Calque 7"><path d="M636.55,348.11l-.73-.11c-13.24,80.37-68.58,61-68.58,61C537.71,377.83,499,376.86,499,376.86v0s-38.14,1-67.24,32.12c0,0-54.91,19.52-67.73-61.8a5.64,5.64,0,0,1-.7-.13c3.77,39.35,24.35,162.1,134.66,170.8V518l1-.08,1,.08v-.15C611,509.25,632.46,388.57,636.55,348.11Z"/></g><g id="Calque_3" data-name="Calque 3"><circle class="cls-7" cx="546" cy="307" r="35.5"/><circle class="cls-7" cx="454" cy="307" r="35.5"/><path class="cls-7" d="M489.5,306.5h21S501.5,293.5,489.5,306.5Z"/><ellipse class="cls-5" cx="500" cy="306.5" rx="10" ry="11.5"/><path class="cls-8" d="M490,307s9-4,21,0"/></g></svg>